<?xml version="1.0" standalone="no"?>
<!DOCTYPE svg PUBLIC "-//W3C//DTD SVG 20010904//EN"
 "http://www.w3.org/TR/2001/REC-SVG-20010904/DTD/svg10.dtd">
<svg version="1.0" xmlns="http://www.w3.org/2000/svg"
 width="1280.000000pt" height="1280.000000pt" viewBox="0 0 1280.000000 1280.000000"
 preserveAspectRatio="xMidYMid meet">
<g transform="translate(0.000000,1280.000000) scale(0.100000,-0.100000)"
fill="#FFFFFF" stroke="none">
<path d="M1330 12480 l0 -320 5065 0 5065 0 0 320 0 320 -5065 0 -5065 0 0
-320z"/>
<path d="M1710 11657 c0 -2 29 -238 65 -525 36 -288 65 -525 65 -527 0 -18
-109 40 -760 406 -402 226 -736 409 -743 406 -13 -5 -317 -517 -317 -533 0 -5
424 -247 942 -539 517 -291 949 -536 959 -545 23 -19 4 120 210 -1535 262
-2119 309 -2493 449 -3620 72 -577 164 -1322 206 -1655 41 -333 111 -892 154
-1244 44 -351 80 -643 80 -647 0 -5 95 -9 210 -9 134 0 210 4 210 10 0 9 -77
811 -150 1565 -17 171 -55 569 -85 885 -31 316 -78 807 -105 1090 -27 283 -74
774 -105 1090 -30 316 -68 715 -85 885 -17 171 -55 569 -85 885 -31 316 -78
807 -105 1090 -27 283 -74 774 -105 1090 -30 316 -69 717 -85 890 -17 173 -48
488 -68 700 l-37 385 -357 3 c-197 1 -358 1 -358 -1z"/>
<path d="M3135 11608 c3 -29 24 -294 45 -588 22 -294 49 -650 60 -790 11 -140
38 -496 60 -790 55 -729 77 -1020 100 -1320 23 -300 45 -591 100 -1320 22
-294 49 -650 60 -790 18 -235 72 -952 120 -1590 11 -146 25 -321 30 -390 6
-69 33 -424 60 -790 28 -366 57 -750 65 -855 8 -104 30 -404 50 -665 19 -261
39 -509 43 -550 l7 -75 435 0 435 0 -2 45 c-3 50 -312 4392 -576 8100 l-172
2415 -463 3 -462 2 5 -52z"/>
<path d="M4984 11473 c3 -104 15 -485 26 -848 11 -363 24 -802 30 -975 5 -173
14 -468 20 -655 6 -187 15 -482 20 -655 5 -173 14 -468 20 -655 6 -187 15
-482 20 -655 5 -173 14 -468 20 -655 6 -187 15 -482 20 -655 6 -173 19 -614
30 -980 24 -779 36 -1193 50 -1640 6 -179 19 -620 30 -980 11 -360 23 -739 26
-842 l7 -188 418 0 419 0 0 178 c0 97 -4 373 -10 612 -5 239 -14 665 -20 945
-6 281 -15 728 -20 995 -5 267 -14 710 -20 985 -6 275 -15 716 -20 980 -5 264
-14 705 -20 980 -6 275 -15 716 -20 980 -5 264 -14 705 -20 980 -6 275 -15
714 -20 975 -5 261 -14 709 -20 995 -5 286 -13 620 -16 743 l-6 222 -476 0
-475 0 7 -187z"/>
<path d="M6856 11598 c-3 -35 -10 -333 -16 -663 -6 -330 -15 -807 -20 -1060
-5 -253 -14 -687 -20 -965 -6 -278 -15 -721 -20 -985 -5 -264 -14 -705 -20
-980 -6 -275 -15 -716 -20 -980 -5 -264 -14 -705 -20 -980 -12 -582 -26 -1258
-40 -1950 -5 -269 -14 -717 -20 -995 -5 -278 -12 -605 -16 -728 l-6 -222 426
0 c333 0 428 3 431 12 2 7 11 258 20 558 8 300 20 682 25 850 5 168 14 458 20
645 6 187 15 482 20 655 5 173 14 468 20 655 6 187 15 482 20 655 5 173 14
468 20 655 6 187 15 482 20 655 5 173 14 468 20 655 6 187 15 482 20 655 5
173 14 468 20 655 6 187 15 482 20 655 6 173 19 614 30 980 11 366 27 877 35
1135 8 259 15 476 15 483 0 9 -102 12 -479 12 l-479 0 -6 -62z"/>
<path d="M8740 11631 c0 -15 -27 -406 -60 -867 -33 -462 -199 -2796 -369
-5189 -171 -2392 -313 -4380 -316 -4418 l-6 -67 438 2 438 3 27 350 c15 193
36 476 48 630 11 154 34 453 50 665 16 212 48 626 70 920 22 294 45 591 50
660 6 69 33 424 60 790 27 366 54 721 60 790 6 69 28 366 50 660 22 294 44
591 50 660 6 69 28 366 50 660 22 294 49 650 60 790 11 140 38 496 60 790 22
294 47 621 55 725 8 105 30 402 50 660 20 259 41 544 48 635 8 91 12 168 10
173 -2 4 -211 7 -464 7 l-459 0 0 -29z"/>
<path d="M10370 11639 c0 -12 -18 -207 -40 -433 -39 -410 -90 -938 -195 -2026
-30 -316 -68 -714 -85 -885 -17 -170 -55 -569 -85 -885 -31 -316 -80 -831
-110 -1145 -30 -313 -68 -709 -85 -880 -17 -170 -55 -569 -85 -885 -31 -316
-78 -807 -105 -1090 -27 -283 -75 -776 -105 -1095 -31 -319 -69 -716 -85 -881
-17 -166 -30 -311 -30 -323 0 -21 2 -21 205 -21 204 0 205 0 210 23 2 12 50
387 105 832 55 446 152 1229 215 1740 64 512 149 1200 190 1530 74 599 155
1253 345 2780 55 446 127 1028 160 1295 33 267 62 490 64 495 2 6 436 254 965
550 528 297 961 545 961 550 0 6 -70 127 -155 270 -113 190 -159 260 -172 259
-15 0 -535 -289 -1323 -735 -100 -57 -158 -85 -165 -78 -6 6 11 176 49 482 33
259 61 496 64 525 l4 52 -356 0 -356 0 0 -21z"/>
<path d="M2680 320 l0 -320 3685 0 3685 0 0 320 0 320 -3685 0 -3685 0 0 -320z"/>
</g>
</svg>
